<svg viewBox="0 0 423.69 356.9" xmlns="http://www.w3.org/2000/svg"><path d="m0 188.99h423.63v7.95h-423.63z" fill="#e84f25"/><g fill="#28abe2"><path d="m9.42 233.88h-9.28v-8.36h28.15v8.36h-9.28v47.5h-9.59zm29.57-8.36h9.59v42.16c0 4.1 1.63 6.11 5.11 6.11s5.11-2.01 5.11-6.11v-42.16h9.59v41.78c0 9.59-5.57 14.85-14.7 14.85s-14.7-5.26-14.7-14.85zm40.18 55.86v-55.86h9.59v47.5h15.09v8.36zm53.09-42.08c-.38-4.8-2.94-6.19-5.1-6.19-3.1 0-4.8 2.01-4.8 5.49 0 9.52 19.5 14.08 19.5 29.24 0 9.21-6.19 14.31-15.16 14.31s-14-7.12-14.39-15.47l9.13-1.32c.38 5.65 2.63 8.43 5.72 8.43 3.33 0 5.57-1.78 5.57-5.1 0-11.06-19.5-14-19.5-30.02 0-8.9 5.42-13.93 14.85-13.93 7.81 0 12.46 5.65 13.31 13.54l-9.13 1.01zm27.49 42.08h-9.28l10.29-55.86h11.91l10.29 55.86h-9.28l-1.7-12.38h-10.52l-1.7 12.38zm3.1-20.73h7.74l-3.79-23.98h-.16zm52.95 20.73v-55.86h13.77c11.84 0 17.33 4.57 17.33 16.48s-5.49 16.48-17.33 16.48h-4.18v22.9zm9.59-30.79h3.72c6.27 0 8.2-1.93 8.2-8.59s-1.93-8.59-8.2-8.59h-3.72zm32.6-25.07h9.59v42.16c0 4.1 1.62 6.11 5.1 6.11s5.11-2.01 5.11-6.11v-42.16h9.59v41.78c0 9.59-5.57 14.85-14.7 14.85s-14.7-5.26-14.7-14.85v-41.78zm40.64 0h14.23c10.29 0 14.85 5.26 14.85 14.78 0 4.8-2.01 9.83-6.65 11.68 4.87 2.17 7.74 6.04 7.74 13.23 0 9.21-4.1 16.17-15.01 16.17h-15.16zm9.59 22.9h3.48c3.63 0 6.42-2.48 6.42-7.12 0-5.18-2.01-7.89-6.27-7.89h-3.64v15.01zm0 25.06h4.03c5.1 0 6.96-2.94 6.96-8.59s-2.17-8.58-7.89-8.58h-3.1zm30.58 7.89v-55.86h9.59v47.5h15.09v8.36zm35.37 0v-55.86h9.59v55.86zm39.93-37.21v-4.33c0-4.72-2.17-6.73-4.64-6.73-3.87 0-5.11 2.01-5.11 6.19v28.31c0 4.18 1.24 6.19 5.11 6.19 3.48 0 4.64-2.01 4.64-5.64v-6.73h9.59v6.42c0 7.89-4.64 14.31-14.24 14.31s-14.7-6.42-14.7-14.31v-28.78c0-7.89 4.64-14.31 14.7-14.31s14.24 6.96 14.24 15.32v4.1h-9.59zm-307.15 72.69c-.36-4.48-2.74-5.78-4.77-5.78-2.89 0-4.48 1.88-4.48 5.13 0 8.89 18.21 13.15 18.21 27.32 0 8.6-5.78 13.37-14.17 13.37s-13.08-6.65-13.44-14.46l8.53-1.23c.36 5.28 2.46 7.88 5.35 7.88 3.11 0 5.2-1.66 5.2-4.77 0-10.34-18.21-13.08-18.21-28.04 0-8.31 5.06-13.01 13.88-13.01 7.3 0 11.64 5.28 12.43 12.65zm37.07 4.55v-4.05c0-4.41-2.02-6.29-4.34-6.29-3.61 0-4.77 1.88-4.77 5.78v26.45c0 3.9 1.15 5.78 4.77 5.78 3.25 0 4.34-1.88 4.34-5.28v-6.29h8.96v6c0 7.37-4.34 13.37-13.3 13.37s-13.73-6-13.73-13.37v-26.89c0-7.37 4.34-13.37 13.73-13.37s13.3 6.5 13.3 14.31v3.83h-8.96zm19.87 34.77v-52.19h8.96v21.25h9.54v-21.25h8.96v52.19h-8.96v-23.13h-9.54v23.13zm37.94-39.54c0-7.37 4.34-13.37 13.73-13.37s13.73 6 13.73 13.37v26.89c0 7.37-4.34 13.37-13.73 13.37s-13.73-6-13.73-13.37zm8.96 26.67c0 3.9 1.15 5.78 4.77 5.78s4.77-1.88 4.77-5.78v-26.45c0-3.9-1.16-5.78-4.77-5.78s-4.77 1.88-4.77 5.78zm28.98-26.67c0-7.37 4.34-13.37 13.73-13.37s13.73 6 13.73 13.37v26.89c0 7.37-4.34 13.37-13.73 13.37s-13.73-6-13.73-13.37zm8.96 26.67c0 3.9 1.15 5.78 4.77 5.78s4.77-1.88 4.77-5.78v-26.45c0-3.9-1.16-5.78-4.77-5.78s-4.77 1.88-4.77 5.78zm28.55 12.87v-52.19h8.96v44.38h14.09v7.8h-23.06zm49.58-39.32c-.36-4.48-2.74-5.78-4.77-5.78-2.89 0-4.48 1.88-4.48 5.13 0 8.89 18.21 13.15 18.21 27.32 0 8.6-5.78 13.37-14.17 13.37s-13.08-6.65-13.44-14.46l8.53-1.23c.36 5.28 2.46 7.88 5.35 7.88 3.11 0 5.2-1.66 5.2-4.77 0-10.34-18.21-13.08-18.21-28.04 0-8.31 5.06-13.01 13.88-13.01 7.3 0 11.64 5.28 12.43 12.65z"/><path d="m117.9 154.44c5.36 2.23 13.16 4.12 21.89 6.16h-114.44l47.48-34.25-30.71-23.99h55.91v21.91s2.55 23.01 19.88 30.18zm-13.66-35.16s2.58 22.98 19.89 30.18c9.63 4.01 27.08 6.9 43.74 11.61 3.72-.19 7.84-.37 12.34-.53-14.83-9.14-31.11-16.23-39.47-19.71-17.31-7.21-19.86-30.17-19.86-30.17v-64.4c-11.79-8.29-16.64-13.37-16.64-13.37zm22.39-13.66s2.56 23.01 19.89 30.18c10.9 4.54 31.61 12.8 45.95 24.39 2.28-.05 4.6-.09 7.02-.12-8.09-12.2-18.92-24.87-32.68-33.52-24.5-15.38-23.53-60.38-23.53-60.38v-34.62c-11.79-10.17-16.65-18.96-16.65-18.96v93.04zm24.72-44.41v-.34s-.37-.2 0 .34zm0 .83s-4.26 42.43 19.82 58.49c22.99 15.36 38.02 37.44 39.37 39.46h.11l-9.31-92.1s-6.07-25.34-29.78-47.77c-15.77-14.94-19.48-19.04-20.21-20.12zm152.97 92.4c-5.36 2.23-13.15 4.12-21.89 6.16h114.44l-47.5-34.25 30.73-23.99h-55.92v21.91s-2.55 23.01-19.88 30.18zm-2.99-43.78s-2.53 22.96-19.86 30.17c-8.32 3.47-24.5 10.51-39.28 19.59 4.18.12 8.46.28 12.84.46 16.44-4.6 33.55-7.47 43.06-11.43 17.31-7.2 19.9-30.18 19.9-30.18v-86.38s-4.86 5.08-16.66 13.38zm-22.4-44.49s.97 45-23.53 60.38c-13.74 8.64-24.56 21.3-32.65 33.49 2.31.02 4.67.06 7.06.1 14.34-11.56 35.01-19.8 45.89-24.33 17.33-7.17 19.85-30.18 19.85-30.18v-93.04s-4.85 8.79-16.62 18.95v34.62zm-8.07-5.29v.35c.37-.55 0-.35 0-.35zm-59.19 99.11c1.35-2.02 16.38-24.1 39.37-39.46 24.08-16.06 19.82-58.49 19.82-58.49v-62.04c-.73 1.09-4.46 5.19-20.21 20.11-23.71 22.43-29.78 47.77-29.78 47.77l-9.31 92.1h.11z"/></g></svg>